<svg width="693" height="150" viewBox="0 0 693 150" fill="none" xmlns="http://www.w3.org/2000/svg">
<path fill-rule="evenodd" clip-rule="evenodd" d="M123.551 32.7902H81.2261L87.4693 0.0295012L35.2214 0V0.0343061C34.488 0.0352686 33.7528 0.0667949 33.0176 0.129336C27.2612 0.619025 21.8242 2.98313 17.5406 6.85913C14.1278 9.94713 11.5971 13.8589 10.1729 18.1934L9.84221 19.2778C9.62846 20.0368 9.44818 20.8074 9.30249 21.5875C9.18081 22.2391 9.08403 22.8932 9.01198 23.5485L0.722121 66.1914C0.170647 68.5003 -0.070371 70.8876 0.0177341 73.2905C0.229394 79.0632 2.3289 84.6072 5.99432 89.0723C9.65973 93.5373 14.6887 96.677 20.3101 98.0099L20.3822 98.027C23.0176 98.6519 25.8096 99.314 28.4722 99.1146L68.0997 98.6485L61.0844 134.735L61.1217 134.743C60.9046 135.644 60.7895 136.584 60.7895 137.552C60.7895 143.965 65.8421 149.198 72.184 149.488V149.501L91.4091 150L95.2087 131.439H113.795C119.257 131.631 124.652 130.122 129.231 127.111C134.057 123.936 137.709 119.267 139.627 113.817C139.695 113.622 139.769 113.427 139.843 113.233C139.989 112.848 140.135 112.463 140.243 112.07L140.483 110.834C140.593 110.341 140.69 109.846 140.772 109.349L149.469 64.6117L149.438 64.6058C150.062 61.6316 150.171 58.5523 149.741 55.5033C148.935 49.7833 146.274 44.4857 142.167 40.4229C138.06 36.3601 132.734 33.7563 127.005 33.0109C126.241 32.9115 125.475 32.8458 124.71 32.8136V32.7902H123.645H123.551ZM40.4688 33.0681H80.889L77.3986 51.0225C77.1692 51.947 77.0475 52.9139 77.0475 53.9093C77.0475 60.5086 82.3979 65.8583 88.9978 65.8583C89.0442 65.8583 89.0905 65.858 89.1368 65.8575V65.8583H115.945L109.625 98.3706H68.4369L71.9444 81.6403C72.2725 80.5492 72.323 78.5648 72.323 77.5294C72.323 71.0697 67.1965 65.8072 60.7895 65.5876V65.5804H34.1483L40.4688 33.0681ZM223.664 81.2L225.072 73.264C225.413 71.1307 225.925 69.2107 226.608 67.504C227.291 65.968 228.059 64.9013 228.912 64.304C231.131 62.4267 234.544 61.488 239.152 61.488C245.467 61.488 251.611 61.9147 257.584 62.768L260.656 46C255.536 44.208 247.557 43.312 236.72 43.312C222.043 43.312 211.888 47.6213 206.256 56.24C204.549 58.544 203.184 61.8293 202.16 66.096L201.392 70.192L198.832 84.272C198.235 88.0267 197.936 90.928 197.936 92.976C198.021 96.6453 199.131 100.016 201.264 103.088C205.275 108.464 213.125 111.152 224.816 111.152C235.653 111.152 243.888 110.256 249.52 108.464L252.464 91.696C246.235 92.5493 239.963 92.976 233.648 92.976C226.992 92.5493 223.493 90.5867 223.152 87.088C223.067 85.3813 223.237 83.4187 223.664 81.2ZM260.906 110H285.098L301.226 18.992H277.034L260.906 110ZM298.406 110H322.598L334.118 44.464H309.926L298.406 110ZM337.83 28.464L337.958 27.568C338.555 23.8133 338.001 21.2533 336.294 19.888C334.587 18.5227 331.345 17.84 326.566 17.84C321.873 17.84 318.374 18.5653 316.07 20.016C313.851 21.3813 312.443 23.8987 311.846 27.568L311.718 28.464C311.206 32.2187 311.803 34.8213 313.51 36.272C315.217 37.6373 318.374 38.32 322.982 38.32C327.761 38.32 331.259 37.6373 333.478 36.272C335.697 34.8213 337.147 32.2187 337.83 28.464ZM377.122 110H404.77L386.466 76.208L414.626 44.464H386.978L375.842 59.696L369.57 44.464H342.05L359.33 76.208L328.994 110H356.514L369.57 92.592L377.122 110ZM422.551 44.464L406.295 135.472H430.487L435.223 108.208C438.466 110.171 442.775 111.152 448.151 111.152C454.124 111.152 459.842 109.531 465.303 106.288C471.788 102.277 476.055 94.7253 478.103 83.632L480.023 72.88C481.73 63.408 481.004 56.112 477.847 50.992C474.775 45.872 469.314 43.312 461.463 43.312C455.49 43.312 449.303 45.104 442.903 48.688L442.007 44.464H422.551ZM438.423 91.184L443.415 63.024C445.719 62.3413 447.98 62 450.199 62C453.015 62 454.85 62.6827 455.703 64.048C456.556 65.328 456.684 67.5467 456.087 70.704L453.783 83.632C453.186 87.0453 452.247 89.392 450.967 90.672C449.687 91.8667 447.639 92.464 444.823 92.464C442.178 92.464 440.044 92.0373 438.423 91.184ZM511.786 84.528H547.37C549.077 80.7733 550.229 76.976 550.826 73.136C552.789 61.872 551.679 54.1067 547.498 49.84C543.402 45.488 536.362 43.312 526.378 43.312C516.053 43.312 507.818 45.4453 501.674 49.712C495.274 54.2347 490.794 63.4933 488.234 77.488C487.466 81.584 487.039 85.2533 486.954 88.496C486.869 91.7387 487.082 94.5547 487.594 96.944C488.106 99.248 489.002 101.253 490.282 102.96C491.562 104.667 493.013 106.032 494.634 107.056C496.255 108.08 498.261 108.933 500.65 109.616C503.125 110.213 505.642 110.597 508.202 110.768C510.762 111.024 513.749 111.152 517.162 111.152C525.695 111.152 533.29 110.171 539.946 108.208L542.89 92.08C535.466 92.9333 529.279 93.36 524.33 93.36C519.466 93.36 516.053 92.6773 514.09 91.312C512.213 89.9467 511.445 87.6853 511.786 84.528ZM527.914 70.32H513.962C514.901 66.8213 516.095 64.3467 517.546 62.896C519.082 61.36 521.087 60.592 523.562 60.592C525.354 60.592 526.591 61.1467 527.274 62.256C527.957 63.3653 528.298 65.456 528.298 68.528C528.298 68.9547 528.17 69.552 527.914 70.32ZM555.558 89.776L552.23 107.824C559.057 110.043 567.334 111.152 577.062 111.152C587.814 111.152 595.579 109.787 600.358 107.056C605.051 104.24 608.038 99.248 609.318 92.08C610.257 86.96 609.958 83.0773 608.422 80.432C606.971 77.7013 603.515 74.8 598.054 71.728L587.302 65.84C586.107 65.1573 585.681 64.2613 586.022 63.152C586.449 61.7013 589.137 60.976 594.086 60.976C596.049 60.976 598.779 61.2747 602.278 61.872C606.033 62.5547 609.233 63.4507 611.878 64.56L615.206 46.768C607.953 44.464 600.998 43.312 594.342 43.312C583.675 43.312 575.825 44.848 570.79 47.92C565.841 50.9067 562.811 55.728 561.702 62.384C560.934 66.992 561.105 70.6613 562.214 73.392C563.323 76.1227 566.011 78.64 570.278 80.944L583.59 88.24C584.955 88.9227 585.553 89.7333 585.382 90.672C584.87 92.5493 582.694 93.488 578.854 93.488C568.699 93.488 560.934 92.2507 555.558 89.776ZM648.909 83.504L650.829 72.368C651.597 68.3573 652.536 65.6267 653.645 64.176C654.84 62.7253 657.016 62 660.173 62C662.477 62 664.397 62.256 665.933 62.768L660.941 91.184C658.978 92.0373 656.93 92.464 654.797 92.464C651.981 92.464 650.146 91.824 649.293 90.544C648.525 89.264 648.397 86.9173 648.909 83.504ZM626.765 70.832L624.589 82.992C621.176 101.765 627.234 111.152 642.765 111.152C648.738 111.152 654.925 109.36 661.325 105.776L662.349 110H681.805L692.557 48.688C683.768 45.104 674.082 43.312 663.501 43.312C652.578 43.312 643.96 45.6587 637.645 50.352C635.17 52.3147 633.122 54.6613 631.501 57.392C629.368 60.8053 627.789 65.2853 626.765 70.832Z" fill="#CCFBF1"/>
</svg>
