<svg width="546" height="543" viewBox="0 0 546 543" fill="none" xmlns="http://www.w3.org/2000/svg">
<path fill-rule="evenodd" clip-rule="evenodd" d="M295.414 120.28H447.785C447.897 120.279 448.009 120.279 448.121 120.28H451.955V120.363C454.71 120.479 457.467 120.713 460.218 121.069C480.842 123.735 500.017 133.048 514.802 147.579C529.586 162.111 539.165 181.058 542.069 201.517C543.617 212.422 543.223 223.436 540.978 234.074L541.087 234.095L509.778 394.104C509.483 395.882 509.137 397.653 508.739 399.415L507.874 403.837C507.288 405.952 506.392 408.006 505.656 410.087C498.753 429.577 485.606 446.28 468.23 457.634C451.748 468.404 432.325 473.799 412.661 473.113H345.751L332.073 539.5L262.862 537.716V537.67C240.031 536.632 221.842 517.915 221.842 494.978C221.842 491.517 222.256 488.152 223.038 484.929L222.904 484.904L248.159 355.833L105.5 357.5C95.8269 358.22 85.6798 355.802 76.1162 353.549C55.8793 348.781 37.775 337.552 24.5795 321.582C11.3841 305.612 3.82582 285.783 3.06384 265.136C2.74666 256.541 3.61433 248.003 5.59964 239.744L35.4431 87.2251C35.7025 84.8814 36.0509 82.5419 36.489 80.2113C37.0134 77.4211 37.6625 74.665 38.4319 71.9503L39.6224 68.0717C44.7495 52.5688 53.86 38.5776 66.1461 27.5328C81.5673 13.6697 101.14 5.21405 121.863 3.46259C124.51 3.2389 127.157 3.12614 129.797 3.1227V3L317.889 3.10552L295.414 120.28ZM294.2 121.274H148.688L125.934 237.559H221.842V237.585C244.907 238.37 263.363 257.193 263.363 280.297C263.363 284 263.181 291.098 262 295L249.373 354.839H397.65L420.404 238.553H323.892V238.55C323.726 238.552 323.559 238.553 323.392 238.553C299.632 238.553 280.371 219.419 280.371 195.816C280.371 192.256 280.809 188.797 281.635 185.491L294.2 121.274Z" fill="#0F766E"/>
<path d="M332.073 539.5L345.751 473.113H412.661C432.325 473.799 451.748 468.404 468.23 457.634C485.606 446.28 498.753 429.577 505.656 410.087C506.392 408.006 507.288 405.952 507.874 403.837L508.739 399.415C509.137 397.653 509.483 395.882 509.778 394.104L541.087 234.095L540.978 234.074C543.223 223.436 543.617 212.422 542.069 201.517C539.165 181.058 529.587 162.111 514.802 147.579C500.017 133.048 480.842 123.735 460.218 121.069C457.467 120.713 454.71 120.479 451.955 120.363V120.28H448.121C448.009 120.279 447.897 120.279 447.785 120.28H295.414L317.889 3.10552L129.797 3V3.1227C127.157 3.12614 124.51 3.2389 121.863 3.46259C101.14 5.21405 81.5673 13.6697 66.1461 27.5328C53.86 38.5776 44.7495 52.5688 39.6224 68.0717L38.4319 71.9503C37.6625 74.665 37.0134 77.4211 36.489 80.2113C36.0509 82.5419 35.7025 84.8814 35.4431 87.2251L5.59964 239.744C3.61433 248.003 2.74666 256.541 3.06384 265.136C3.82582 285.783 11.3841 305.612 24.5795 321.582C37.775 337.552 55.8793 348.781 76.1162 353.549C85.6798 355.802 95.8268 358.22 105.5 357.5L248.159 355.833L222.904 484.904L223.038 484.929C222.256 488.152 221.842 491.517 221.842 494.978C221.842 517.915 240.031 536.632 262.862 537.67V537.716L332.073 539.5ZM332.073 539.5V537.81M294.2 121.274H148.688L125.934 237.559H221.842V237.585C244.907 238.37 263.363 257.193 263.363 280.297C263.363 284 263.181 291.098 262 295L249.373 354.839H397.65L420.404 238.553H323.892V238.55C323.726 238.552 323.559 238.553 323.392 238.553C299.632 238.553 280.371 219.419 280.371 195.816C280.371 192.256 280.809 188.797 281.635 185.491L294.2 121.274Z" stroke="#0F766E" stroke-width="5"/>
</svg>
